<?xml version="1.0" encoding="UTF-8"?>
<svg id="Camada_1" data-name="Camada 1" xmlns="http://www.w3.org/2000/svg" xmlns:xlink="http://www.w3.org/1999/xlink" viewBox="0 0 640 830">
  <defs>
    <style>
      .cls-1 {
        fill: url(#Gradiente_sem_nome_9);
      }

      .cls-2 {
        font-size: 27px;
        letter-spacing: .1em;
      }

      .cls-2, .cls-3, .cls-4, .cls-5, .cls-6, .cls-7 {
        fill: #fff;
      }

      .cls-2, .cls-7 {
        font-family: UniNeueBook, 'Uni Neue';
      }

      .cls-4 {
        font-size: 180.26px;
        letter-spacing: -.05em;
      }

      .cls-4, .cls-5, .cls-6 {
        font-family: UniNeueBold, 'Uni Neue';
      }

      .cls-8 {
        letter-spacing: .08em;
      }

      .cls-9 {
        fill: #2a8ffc;
      }

      .cls-5 {
        letter-spacing: -.05em;
      }

      .cls-5, .cls-6 {
        font-size: 66.13px;
      }

      .cls-6 {
        letter-spacing: -.07em;
      }

      .cls-10 {
        letter-spacing: .1em;
      }

      .cls-7 {
        font-size: 27.15px;
      }
    </style>
    <linearGradient id="Gradiente_sem_nome_9" data-name="Gradiente sem nome 9" x1="52.52" y1="56.56" x2="557.11" y2="561.15" gradientUnits="userSpaceOnUse">
      <stop offset="0" stop-color="#ffc602"/>
      <stop offset=".83" stop-color="#ff3dc8"/>
      <stop offset="1" stop-color="#d82aaf"/>
    </linearGradient>
  </defs>
  <rect class="cls-9" y="376.89" width="501" height="404.78" rx="76.22" ry="76.22"/>
  <g>
    <text class="cls-7" transform="translate(74.86 583.57)"><tspan class="cls-10" x="0" y="0">POR</tspan><tspan class="cls-8" x="59.98" y="0"> </tspan><tspan class="cls-10" x="68.35" y="0">APENAS:</tspan></text>
    <text class="cls-2" transform="translate(362.45 751.38)"><tspan x="0" y="0">/MÊS</tspan></text>
    <g>
      <text class="cls-5" transform="translate(73.45 672.63)"><tspan x="0" y="0">R$</tspan></text>
      <text class="cls-5" transform="translate(344.27 672.63)"><tspan x="0" y="0">90</tspan></text>
      <text class="cls-6" transform="translate(335.77 735.83)"><tspan x="0" y="0">,</tspan></text>
      <text class="cls-4" transform="translate(143.59 735.83)"><tspan x="0" y="0">64</tspan></text>
    </g>
  </g>
  <path class="cls-1" d="m103.39,48.33h433.22c57.06,0,103.39,46.33,103.39,103.39v283.89c0,57.06-46.33,103.39-103.39,103.39H0V151.72C0,94.66,46.33,48.33,103.39,48.33Z"/>
  <g>
    <g>
      <path class="cls-3" d="m154.21,363.2c-33.82,0-55.21-10.41-70.82-23.41-2.6-2.31-2.02-4.91,0-8.09l19.94-30.93c1.45-2.6,5.2-1.73,8.09,0,11.56,6.94,22.83,12.14,42.78,12.14,17.63,0,26.01-7.52,26.01-23.99,0-14.45-8.67-21.39-27.17-21.39-5.78,0-13.01,1.16-19.94,3.18-3.47,1.16-5.78-.29-7.23-3.47l-8.38-19.37c-1.16-2.89-.58-5.78,1.73-8.09l17.34-16.19c8.09-8.09,17.34-17.34,22.83-21.97h-61.28c-3.76,0-5.78-2.02-5.78-5.78v-37.58c0-3.76,2.02-5.78,5.78-5.78h122.84c3.76,0,5.78,2.02,5.78,5.78v30.64c0,2.89-1.16,5.2-3.18,7.23l-42.2,39.31v.58c31.51-1.45,54.05,24.57,54.05,56.08,0,46.83-28.91,71.11-81.22,71.11Z"/>
      <path class="cls-3" d="m245.84,359.16c-3.76,0-5.78-2.02-5.78-5.78v-32.08c0-2.89.87-5.2,2.89-7.23l37.58-36.42c39.6-38.73,51.16-50.58,51.16-64.46,0-8.67-5.2-15.03-19.37-15.03s-24.86,6.65-36.13,17.05c-2.89,2.89-5.78,2.89-8.09-.29l-21.68-28.9c-2.02-2.89-2.02-5.49.58-8.09,18.21-17.92,39.6-29.48,68.5-29.48,43.94,0,70.82,23.12,70.82,63.01,0,20.81-7.8,35.26-26.59,56.94-14.74,17.34-29.77,31.22-42.49,42.2h66.77c3.76,0,5.78,2.02,5.78,5.78v37c0,3.76-2.02,5.78-5.78,5.78h-138.16Z"/>
      <path class="cls-3" d="m478.23,363.2c-48.85,0-77.75-29.19-77.75-79.2v-57.52c0-49.14,28.91-78.04,77.75-78.04s77.75,28.9,77.75,78.04v57.52c0,50-28.91,79.2-77.75,79.2Zm0-51.45c15.32,0,23.7-8.09,23.7-25.15v-62.43c0-16.77-8.38-24.86-23.7-24.86s-23.7,8.09-23.7,24.86v62.43c0,17.05,8.38,25.15,23.7,25.15Z"/>
    </g>
    <g>
      <path class="cls-3" d="m183.36,438.26c-.32,0-.51-.19-.51-.5v-44.14c0-.32.19-.5.51-.5h3.09c.25,0,.51.13.63.38l11.74,20.84c1.52,2.72,3.47,6.44,4.74,8.9h.06c1.33-2.4,3.22-6.06,4.74-8.78l11.81-20.96c.13-.25.38-.38.63-.38h3.03c.32,0,.57.19.57.5v44.14c0,.32-.25.5-.57.5h-2.4c-.32,0-.57-.19-.57-.5v-25.19c0-4.48.13-9.53.19-14.08l-.06-.06c-1.77,3.41-3.73,7.01-5.81,10.73l-9.91,17.87c-.13.19-.38.32-.63.32h-2.02c-.25,0-.5-.13-.63-.32l-9.98-17.87-5.81-10.73-.06.06c.06,4.55.19,9.66.19,14.14v25.13c0,.32-.19.5-.51.5h-2.46Z"/>
      <path class="cls-3" d="m277.62,435.04h22.98c.32,0,.51.19.51.5v2.21c0,.32-.19.5-.51.5h-25.95c-.32,0-.51-.19-.51-.5v-44.14c0-.32.19-.5.51-.5h25c.38,0,.57.19.57.5v2.21c0,.32-.19.5-.57.5h-22.04v17.3h20.71c.32,0,.51.19.51.57v2.15c0,.32-.19.51-.51.51h-20.71v18.18Z"/>
      <path class="cls-3" d="m362.11,438.89c-9.72,0-16.23-5.81-16.23-15.28v-15.91c0-9.53,6.38-15.28,15.91-15.28,5.18,0,10.54,1.64,14.71,4.8.32.19.32.51.13.76l-1.33,1.77c-.19.25-.44.32-.69.13-3.6-2.65-8.21-4.17-12.82-4.17-7.96,0-12.44,4.67-12.44,12.06v15.85c0,7.32,4.74,12,12.75,12,4.67,0,9.03-1.58,12.25-4.42v-13.58h-12c-.38,0-.57-.19-.57-.5v-2.21c0-.32.19-.5.57-.5h14.9c.32,0,.57.19.57.5v17.17c0,.25-.06.5-.25.63-3.98,3.98-9.41,6.19-15.47,6.19Z"/>
      <path class="cls-3" d="m420.83,438.26c-.32,0-.5-.25-.38-.63l16.16-44.07c.13-.25.32-.44.57-.44h3.16c.25,0,.44.19.57.44l16.23,44.07c.06.38-.06.63-.44.63h-2.59c-.32,0-.5-.19-.63-.44l-4.61-12.75h-20.21l-4.61,12.75c-.13.25-.32.44-.57.44h-2.65Zm8.9-16.42h18.06l-8.9-24.69h-.19l-8.97,24.69Z"/>
    </g>
  </g>
</svg>