<?xml version="1.0" encoding="UTF-8"?>
<svg id="Camada_1" data-name="Camada 1" xmlns="http://www.w3.org/2000/svg" xmlns:xlink="http://www.w3.org/1999/xlink" viewBox="0 0 640 426">
  <defs>
    <style>
      .cls-1 {
        filter: url(#drop-shadow-10);
      }

      .cls-2 {
        fill: #fff;
      }

      .cls-3 {
        filter: url(#drop-shadow-5);
      }
    </style>
    <filter id="drop-shadow-5" filterUnits="userSpaceOnUse">
      <feOffset dx="7" dy="7"/>
      <feGaussianBlur result="blur" stdDeviation="5"/>
      <feFlood flood-color="#000" flood-opacity=".25"/>
      <feComposite in2="blur" operator="in"/>
      <feComposite in="SourceGraphic"/>
    </filter>
    <filter id="drop-shadow-10" filterUnits="userSpaceOnUse">
      <feOffset dx="7" dy="7"/>
      <feGaussianBlur result="blur-2" stdDeviation="5"/>
      <feFlood flood-color="#000" flood-opacity=".25"/>
      <feComposite in2="blur-2" operator="in"/>
      <feComposite in="SourceGraphic"/>
    </filter>
  </defs>
  <g class="cls-3">
    <path class="cls-2" d="m103.52,377.4h-3.53c-.48,0-.73-.22-.73-.67v-58.6c0-.44.23-.67.73-.67h4.44c.42,0,.73.17.9.51l16.85,27.66c2,3.29,4.26,7.24,6.8,11.82h.09c.54-.95,1.62-2.81,3.22-5.57s2.79-4.8,3.58-6.08l16.93-27.84c.18-.33.48-.51.9-.51h4.34c.54,0,.81.22.81.67v58.6c0,.44-.27.67-.81.67h-3.44c-.54,0-.81-.22-.81-.67v-33.45c0-.39.09-6.62.27-18.7l-.09-.09c-2.36,4.24-5.13,8.99-8.33,14.25l-14.22,23.73c-.18.28-.48.42-.9.42h-2.9c-.42,0-.73-.14-.9-.42l-14.31-23.73-8.33-14.25-.09.09c.18,12.07.27,18.33.27,18.77v33.36c0,.44-.25.67-.73.67l-.02.02h.01Z"/>
    <path class="cls-2" d="m253.29,348.98v24.14h32.96c.48,0,.73.22.73.67v2.94c0,.44-.25.67-.73.67h-37.21c-.48,0-.73-.22-.73-.67v-58.6c0-.44.23-.67.73-.67h35.85c.54,0,.81.22.81.67v2.94c0,.44-.27.67-.81.67h-31.6v22.97h29.7c.48,0,.73.25.73.75v2.85c0,.44-.25.67-.73.67h-29.7v.02-.02Z"/>
    <path class="cls-2" d="m414.72,370.02c-5.92,5.48-13.31,8.21-22.19,8.21-7.01,0-12.63-1.81-16.88-5.45-4.26-3.63-6.39-8.57-6.39-14.84v-21.13c0-6.25,2.08-11.2,6.25-14.84,4.17-3.64,9.69-5.45,16.56-5.45,8.03,0,15.06,2.12,21.1,6.36.48.28.54.62.18,1.01l-1.9,2.34c-.3.39-.63.44-1,.17-5.44-3.69-11.56-5.54-18.38-5.54-5.67,0-10.06,1.43-13.17,4.28-3.11,2.85-4.66,6.76-4.66,11.73v21.04c0,4.92,1.62,8.81,4.85,11.66,3.23,2.85,7.71,4.28,13.44,4.28,6.94,0,12.8-1.96,17.56-5.87v-18.02h-17.21c-.54,0-.81-.22-.81-.67v-2.94c0-.44.27-.67.81-.67h21.37c.54,0,.81.22.81.67v22.81c0,.39-.12.67-.36.84h-.01l.03.02Z"/>
    <path class="cls-2" d="m498.67,377.4h-3.8c-.54,0-.73-.28-.54-.84l23.19-58.51c.18-.39.46-.59.81-.59h4.53c.36,0,.63.2.81.59l23.27,58.51c.12.56-.09.84-.63.84h-3.71c-.36,0-.67-.2-.9-.59l-6.61-16.93h-28.97l-6.61,16.93c-.25.39-.52.59-.81.59h-.03Zm21.82-54.58l-12.86,32.77h25.9l-12.77-32.77h-.27Z"/>
  </g>
  <g class="cls-1">
    <path class="cls-2" d="m121.83,289.77c-38.42,0-62.72-11.82-80.45-26.6-2.96-2.63-2.3-5.58,0-9.19l22.66-35.13c1.64-2.96,5.91-1.97,9.19,0,13.13,7.88,25.94,13.79,48.6,13.79,20.03,0,29.55-8.54,29.55-27.25,0-16.42-9.85-24.3-30.87-24.3-6.57,0-14.78,1.31-22.66,3.61-3.94,1.31-6.57-.33-8.21-3.94l-9.52-22c-1.31-3.28-.66-6.57,1.97-9.19l19.7-18.39c9.19-9.19,19.7-19.7,25.94-24.96H58.13c-4.27,0-6.57-2.3-6.57-6.57v-42.69c0-4.27,2.3-6.57,6.57-6.57h139.55c4.27,0,6.57,2.3,6.57,6.57v34.81c0,3.28-1.31,5.91-3.61,8.21l-47.94,44.66v.66c35.79-1.64,61.4,27.91,61.4,63.7,0,53.19-32.84,80.78-92.27,80.78Z"/>
    <path class="cls-2" d="m315.89,289.77c-39.07,0-67.31-11.82-84.39-27.58-2.63-2.96-2.63-5.91,0-9.19l22.33-33.49c2.63-3.28,5.91-2.63,9.52-.66,15.1,9.19,35.46,14.12,49.58,14.12,22.66,0,32.51-9.52,32.51-28.89,0-15.43-11.82-22.99-30.54-22.99-12.48,0-23.31,2.96-33.82,8.54-3.28,1.64-5.58,2.3-8.87,1.31l-27.91-8.87c-3.61-1.31-5.25-3.94-5.25-7.55l4.27-117.55c0-3.94,2.96-6.57,6.9-6.57h133.31c4.27,0,6.57,2.3,6.57,6.57v43.34c0,4.27-2.3,6.57-6.57,6.57h-83.4l-1.64,34.48c4.6-3.61,19.04-8.54,32.84-8.54,47.28,0,75.19,30.21,75.19,74.21,0,51.22-35.13,82.75-90.62,82.75Z"/>
    <path class="cls-2" d="m513.56,289.77c-55.49,0-88.33-33.16-88.33-89.97v-65.34c0-55.82,32.84-88.66,88.33-88.66s88.33,32.83,88.33,88.66v65.34c0,56.8-32.83,89.97-88.33,89.97Zm0-58.45c17.4,0,26.92-9.19,26.92-28.57v-70.92c0-19.04-9.52-28.24-26.92-28.24s-26.93,9.19-26.93,28.24v70.92c0,19.37,9.52,28.57,26.93,28.57Z"/>
  </g>
</svg>