<?xml version="1.0" encoding="UTF-8"?>
<svg id="Camada_1" data-name="Camada 1" xmlns="http://www.w3.org/2000/svg" xmlns:xlink="http://www.w3.org/1999/xlink" viewBox="0 0 640 426">
  <defs>
    <style>
      .cls-1 {
        fill: #fff;
      }

      .cls-2 {
        filter: url(#drop-shadow-8);
      }

      .cls-3 {
        filter: url(#drop-shadow-3);
      }
    </style>
    <filter id="drop-shadow-3" filterUnits="userSpaceOnUse">
      <feOffset dx="7" dy="7"/>
      <feGaussianBlur result="blur" stdDeviation="5"/>
      <feFlood flood-color="#000" flood-opacity=".25"/>
      <feComposite in2="blur" operator="in"/>
      <feComposite in="SourceGraphic"/>
    </filter>
    <filter id="drop-shadow-8" filterUnits="userSpaceOnUse">
      <feOffset dx="7" dy="7"/>
      <feGaussianBlur result="blur-2" stdDeviation="5"/>
      <feFlood flood-color="#000" flood-opacity=".25"/>
      <feComposite in2="blur-2" operator="in"/>
      <feComposite in="SourceGraphic"/>
    </filter>
  </defs>
  <g class="cls-3">
    <path class="cls-1" d="m103.52,377.4h-3.53c-.48,0-.73-.22-.73-.67v-58.6c0-.44.23-.67.73-.67h4.44c.42,0,.73.17.9.51l16.85,27.66c2,3.29,4.26,7.24,6.8,11.82h.09c.54-.95,1.62-2.81,3.22-5.57s2.79-4.8,3.58-6.08l16.93-27.84c.18-.33.48-.51.9-.51h4.34c.54,0,.81.22.81.67v58.6c0,.44-.27.67-.81.67h-3.44c-.54,0-.81-.22-.81-.67v-33.45c0-.39.09-6.62.27-18.7l-.09-.09c-2.36,4.24-5.13,8.99-8.33,14.25l-14.22,23.73c-.18.28-.48.42-.9.42h-2.9c-.42,0-.73-.14-.9-.42l-14.31-23.73-8.33-14.25-.09.09c.18,12.07.27,18.33.27,18.77v33.36c0,.44-.25.67-.73.67l-.02.02h.01Z"/>
    <path class="cls-1" d="m253.29,348.98v24.14h32.96c.48,0,.73.22.73.67v2.94c0,.44-.25.67-.73.67h-37.21c-.48,0-.73-.22-.73-.67v-58.6c0-.44.23-.67.73-.67h35.85c.54,0,.81.22.81.67v2.94c0,.44-.27.67-.81.67h-31.6v22.97h29.7c.48,0,.73.25.73.75v2.85c0,.44-.25.67-.73.67h-29.7v.02-.02Z"/>
    <path class="cls-1" d="m414.72,370.02c-5.92,5.48-13.31,8.21-22.19,8.21-7.01,0-12.63-1.81-16.88-5.45-4.26-3.63-6.39-8.57-6.39-14.84v-21.13c0-6.25,2.08-11.2,6.25-14.84,4.17-3.64,9.69-5.45,16.56-5.45,8.03,0,15.06,2.12,21.1,6.36.48.28.54.62.18,1.01l-1.9,2.34c-.3.39-.63.44-1,.17-5.44-3.69-11.56-5.54-18.38-5.54-5.67,0-10.06,1.43-13.17,4.28-3.11,2.85-4.66,6.76-4.66,11.73v21.04c0,4.92,1.62,8.81,4.85,11.66,3.23,2.85,7.71,4.28,13.44,4.28,6.94,0,12.8-1.96,17.56-5.87v-18.02h-17.21c-.54,0-.81-.22-.81-.67v-2.94c0-.44.27-.67.81-.67h21.37c.54,0,.81.22.81.67v22.81c0,.39-.12.67-.36.84h-.01l.03.02Z"/>
    <path class="cls-1" d="m498.67,377.4h-3.8c-.54,0-.73-.28-.54-.84l23.19-58.51c.18-.39.46-.59.81-.59h4.53c.36,0,.63.2.81.59l23.27,58.51c.12.56-.09.84-.63.84h-3.71c-.36,0-.67-.2-.9-.59l-6.61-16.93h-28.97l-6.61,16.93c-.25.39-.52.59-.81.59h-.03Zm21.82-54.58l-12.86,32.77h25.9l-12.77-32.77h-.27Z"/>
  </g>
  <g class="cls-2">
    <path class="cls-1" d="m139.4,285.17c-4.27,0-6.57-2.3-6.57-6.57v-29.22H34.98c-4.27,0-6.57-2.3-6.57-6.57v-34.81c0-2.96.66-5.25,1.97-8.21L102.95,55.32c1.64-3.28,3.94-4.92,7.55-4.92h53.52c4.93,0,6.9,3.28,4.6,7.88l-67.64,137.25h31.85l7.22-38.75c.66-3.94,2.96-5.91,6.9-5.91h40.72c4.27,0,6.57,2.3,6.57,6.57v38.09h18.06c4.27,0,6.57,2.3,6.57,6.57v40.72c0,4.27-2.3,6.57-6.57,6.57h-18.06v29.22c0,4.27-2.3,6.57-6.57,6.57h-48.27Z"/>
    <path class="cls-1" d="m323.28,289.77c-55.49,0-88.33-33.16-88.33-89.97v-65.34c0-55.82,32.84-88.66,88.33-88.66s88.33,32.84,88.33,88.66v65.34c0,56.81-32.84,89.97-88.33,89.97Zm0-58.45c17.4,0,26.92-9.19,26.92-28.57v-70.92c0-19.04-9.52-28.24-26.92-28.24s-26.93,9.19-26.93,28.24v70.92c0,19.37,9.52,28.57,26.93,28.57Z"/>
    <path class="cls-1" d="m524.88,289.77c-55.49,0-88.33-33.16-88.33-89.97v-65.34c0-55.82,32.84-88.66,88.33-88.66s88.33,32.84,88.33,88.66v65.34c0,56.81-32.83,89.97-88.33,89.97Zm0-58.45c17.4,0,26.92-9.19,26.92-28.57v-70.92c0-19.04-9.52-28.24-26.92-28.24s-26.93,9.19-26.93,28.24v70.92c0,19.37,9.52,28.57,26.93,28.57Z"/>
  </g>
</svg>