<?xml version="1.0" encoding="UTF-8"?>
<svg id="Camada_1" data-name="Camada 1" xmlns="http://www.w3.org/2000/svg" xmlns:xlink="http://www.w3.org/1999/xlink" viewBox="0 0 640 426">
  <defs>
    <style>
      .cls-1 {
        fill: #fff;
      }

      .cls-2 {
        filter: url(#drop-shadow-1);
      }

      .cls-3 {
        filter: url(#drop-shadow-2);
      }
    </style>
    <filter id="drop-shadow-1" filterUnits="userSpaceOnUse">
      <feOffset dx="7" dy="7"/>
      <feGaussianBlur result="blur" stdDeviation="5"/>
      <feFlood flood-color="#000" flood-opacity=".25"/>
      <feComposite in2="blur" operator="in"/>
      <feComposite in="SourceGraphic"/>
    </filter>
    <filter id="drop-shadow-2" filterUnits="userSpaceOnUse">
      <feOffset dx="7" dy="7"/>
      <feGaussianBlur result="blur-2" stdDeviation="5"/>
      <feFlood flood-color="#000" flood-opacity=".25"/>
      <feComposite in2="blur-2" operator="in"/>
      <feComposite in="SourceGraphic"/>
    </filter>
  </defs>
  <g class="cls-2">
    <path class="cls-1" d="m112.17,289.44c-48.92,0-76.51-34.15-68.63-79.79l14.45-80.12c9.19-52.21,49.58-83.4,96.54-83.4,27.58,0,51.22,8.87,67.64,22.33,2.96,2.3,2.96,4.92.66,7.88l-23.64,29.88c-2.3,2.96-5.25,2.96-7.88.66-10.51-8.21-25.61-13.13-42.03-13.13-21.67,0-37.43,12.81-41.04,35.46l-2.96,16.75c10.84-6.57,23.64-10.51,39.73-10.51,45.97,0,70.92,28.9,63.04,73.88-8.54,47.94-45.97,80.12-95.88,80.12Zm6.9-47.94c20.36,0,34.81-13.13,38.75-34.81,3.28-19.04-4.93-29.55-25.94-29.55-18.39,0-33.82,10.18-37.43,30.87-3.94,21.67,5.58,33.49,24.63,33.49Z"/>
    <path class="cls-1" d="m299.01,289.44c-44.66,0-78.15-32.18-68.3-87.01l12.81-72.24c10.18-58.12,47.94-84.06,96.86-84.06,44.66,0,77.82,31.85,68.3,85.37l-12.81,72.57c-10.51,59.1-47.94,85.37-96.86,85.37Zm6.9-49.25c18.06,0,34.81-9.52,39.07-34.81l13.46-76.18c4.27-25.28-8.21-34.15-25.61-34.15s-34.15,9.52-38.75,34.8l-13.13,76.18c-4.6,25.61,7.88,34.15,24.96,34.15Z"/>
    <path class="cls-1" d="m491.1,289.44c-44.66,0-78.15-32.18-68.3-87.01l12.81-72.24c10.18-58.12,47.94-84.06,96.86-84.06,44.66,0,77.82,31.85,68.3,85.37l-12.81,72.57c-10.51,59.1-47.94,85.37-96.86,85.37Zm6.9-49.25c18.06,0,34.8-9.52,39.07-34.81l13.46-76.18c4.27-25.28-8.21-34.15-25.61-34.15s-34.15,9.52-38.75,34.8l-13.13,76.18c-4.6,25.61,7.88,34.15,24.96,34.15Z"/>
  </g>
  <g class="cls-3">
    <path class="cls-1" d="m103.52,377.4h-3.53c-.48,0-.73-.22-.73-.67v-58.6c0-.44.23-.67.73-.67h4.44c.42,0,.73.17.9.51l16.85,27.66c2,3.29,4.26,7.24,6.8,11.82h.09c.54-.95,1.62-2.81,3.22-5.57s2.79-4.8,3.58-6.08l16.93-27.84c.18-.33.48-.51.9-.51h4.34c.54,0,.81.22.81.67v58.6c0,.44-.27.67-.81.67h-3.44c-.54,0-.81-.22-.81-.67v-33.45c0-.39.09-6.62.27-18.7l-.09-.09c-2.36,4.24-5.13,8.99-8.33,14.25l-14.22,23.73c-.18.28-.48.42-.9.42h-2.9c-.42,0-.73-.14-.9-.42l-14.31-23.73-8.33-14.25-.09.09c.18,12.07.27,18.33.27,18.77v33.36c0,.44-.25.67-.73.67l-.02.02h.01Z"/>
    <path class="cls-1" d="m253.29,348.98v24.14h32.96c.48,0,.73.22.73.67v2.94c0,.44-.25.67-.73.67h-37.21c-.48,0-.73-.22-.73-.67v-58.6c0-.44.23-.67.73-.67h35.85c.54,0,.81.22.81.67v2.94c0,.44-.27.67-.81.67h-31.6v22.97h29.7c.48,0,.73.25.73.75v2.85c0,.44-.25.67-.73.67h-29.7v.02-.02Z"/>
    <path class="cls-1" d="m414.72,370.02c-5.92,5.48-13.31,8.21-22.19,8.21-7.01,0-12.63-1.81-16.88-5.45-4.26-3.63-6.39-8.57-6.39-14.84v-21.13c0-6.25,2.08-11.2,6.25-14.84,4.17-3.64,9.69-5.45,16.56-5.45,8.03,0,15.06,2.12,21.1,6.36.48.28.54.62.18,1.01l-1.9,2.34c-.3.39-.63.44-1,.17-5.44-3.69-11.56-5.54-18.38-5.54-5.67,0-10.06,1.43-13.17,4.28-3.11,2.85-4.66,6.76-4.66,11.73v21.04c0,4.92,1.62,8.81,4.85,11.66,3.23,2.85,7.71,4.28,13.44,4.28,6.94,0,12.8-1.96,17.56-5.87v-18.02h-17.21c-.54,0-.81-.22-.81-.67v-2.94c0-.44.27-.67.81-.67h21.37c.54,0,.81.22.81.67v22.81c0,.39-.12.67-.36.84h-.01l.03.02Z"/>
    <path class="cls-1" d="m498.67,377.4h-3.8c-.54,0-.73-.28-.54-.84l23.19-58.51c.18-.39.46-.59.81-.59h4.53c.36,0,.63.2.81.59l23.27,58.51c.12.56-.09.84-.63.84h-3.71c-.36,0-.67-.2-.9-.59l-6.61-16.93h-28.97l-6.61,16.93c-.25.39-.52.59-.81.59h-.03Zm21.82-54.58l-12.86,32.77h25.9l-12.77-32.77h-.27Z"/>
  </g>
</svg>