<?xml version="1.0" encoding="UTF-8"?>
<svg id="Camada_1" data-name="Camada 1" xmlns="http://www.w3.org/2000/svg" xmlns:xlink="http://www.w3.org/1999/xlink" viewBox="0 0 640 830">
  <defs>
    <style>
      .cls-1 {
        fill: url(#Gradiente_sem_nome_20-2);
      }

      .cls-2 {
        fill: url(#Gradiente_sem_nome_9);
      }

      .cls-3 {
        font-size: 27px;
        letter-spacing: .1em;
      }

      .cls-3, .cls-4, .cls-5, .cls-6, .cls-7, .cls-8 {
        fill: #fff;
      }

      .cls-3, .cls-8 {
        font-family: UniNeueBook, 'Uni Neue';
      }

      .cls-9 {
        fill: url(#Gradiente_sem_nome_20-3);
      }

      .cls-10 {
        fill: url(#Gradiente_sem_nome_12);
      }

      .cls-5 {
        font-size: 180.26px;
        letter-spacing: -.05em;
      }

      .cls-5, .cls-6, .cls-7 {
        font-family: UniNeueBold, 'Uni Neue';
      }

      .cls-11 {
        letter-spacing: .08em;
      }

      .cls-6 {
        letter-spacing: -.05em;
      }

      .cls-6, .cls-7 {
        font-size: 66.13px;
      }

      .cls-7 {
        letter-spacing: -.07em;
      }

      .cls-12 {
        letter-spacing: .1em;
      }

      .cls-13 {
        fill: url(#Gradiente_sem_nome_20-4);
      }

      .cls-14 {
        fill: url(#Gradiente_sem_nome_20);
      }

      .cls-8 {
        font-size: 27.15px;
      }
    </style>
    <linearGradient id="Gradiente_sem_nome_9" data-name="Gradiente sem nome 9" x1="31.37" y1="474.48" x2="1131.88" y2="950.22" gradientUnits="userSpaceOnUse">
      <stop offset="0" stop-color="#ffc602"/>
      <stop offset=".83" stop-color="#ff3dc8"/>
      <stop offset="1" stop-color="#d82aaf"/>
    </linearGradient>
    <linearGradient id="Gradiente_sem_nome_12" data-name="Gradiente sem nome 12" x1="52.52" y1="56.56" x2="557.11" y2="561.15" gradientUnits="userSpaceOnUse">
      <stop offset="0" stop-color="#1f93ff"/>
      <stop offset="1" stop-color="#ff3dc8"/>
    </linearGradient>
    <linearGradient id="Gradiente_sem_nome_20" data-name="Gradiente sem nome 20" x1="-261.94" y1="-344.55" x2="-81.66" y2="-283.51" gradientTransform="translate(-206.23 661.04) rotate(90) scale(1 1.45)" gradientUnits="userSpaceOnUse">
      <stop offset="0" stop-color="#1f93ff"/>
      <stop offset=".47" stop-color="#ff3dc8"/>
      <stop offset="1" stop-color="#ffc602"/>
    </linearGradient>
    <linearGradient id="Gradiente_sem_nome_20-2" data-name="Gradiente sem nome 20" x1="326.74" y1="36.25" x2="663.96" y2="150.42" gradientTransform="matrix(1,0,0,1,0,0)" xlink:href="#Gradiente_sem_nome_20"/>
    <linearGradient id="Gradiente_sem_nome_20-3" data-name="Gradiente sem nome 20" x1="-72.35" y1="-667.47" x2="264.88" y2="-553.3" gradientTransform="translate(-109.54 -89.66) rotate(143.08)" xlink:href="#Gradiente_sem_nome_20"/>
    <linearGradient id="Gradiente_sem_nome_20-4" data-name="Gradiente sem nome 20" x1="-440.95" y1="166.01" x2="-260.66" y2="227.04" gradientTransform="translate(467.93 -371.73) rotate(-45.95) scale(1 1.45)" xlink:href="#Gradiente_sem_nome_20"/>
  </defs>
  <rect class="cls-2" y="376.89" width="547.6" height="404.78" rx="76.22" ry="76.22"/>
  <text class="cls-5" transform="translate(150.68 735.83)"><tspan x="0" y="0">149</tspan></text>
  <g>
    <text class="cls-8" transform="translate(74.86 583.57)"><tspan class="cls-12" x="0" y="0">POR</tspan><tspan class="cls-11" x="59.98" y="0"> </tspan><tspan class="cls-12" x="68.35" y="0">APENAS:</tspan></text>
    <text class="cls-3" transform="translate(412.66 720.93)"><tspan x="0" y="0">/MÊS</tspan></text>
    <g>
      <text class="cls-6" transform="translate(73.45 672.63)"><tspan x="0" y="0">R$</tspan></text>
      <text class="cls-6" transform="translate(408.95 672.63)"><tspan x="0" y="0">90</tspan></text>
      <text class="cls-7" transform="translate(395.36 735.83)"><tspan x="0" y="0">,</tspan></text>
    </g>
  </g>
  <path class="cls-10" d="m103.39,48.33h433.22c57.06,0,103.39,46.33,103.39,103.39v283.89c0,57.06-46.33,103.39-103.39,103.39H0V151.72C0,94.66,46.33,48.33,103.39,48.33Z"/>
  <path class="cls-14" d="m294.01,463.81c3.95,3.77,9.42,9.96,12.59,18.39.41,1.08,2.13,5.79,2.52,12.14,0,0,.62,10.21-4.34,22.04-1.53,3.65-3.54,6.98-4.57,8.5-.85,1.25-1.8,2.49-1.8,2.49-.62.82-1.31,1.62-1.98,2.43-1.26,1.51-2.65,3.03-4.15,4.54-3.01,3.02-6.43,5.91-10.27,8.6-.98.66-1.93,1.34-2.96,1.97l-3.12,1.89c-1.09.6-2.2,1.18-3.31,1.76-1.09.59-2.31,1.1-3.46,1.65-4.73,2.1-9.82,3.95-15.28,5.21-.68.16-1.35.34-2.03.49l-2.08.39c-1.39.24-2.77.54-4.18.72-2.84.32-5.65.73-8.52.79-5.7.35-11.4.03-16.89-.63-1.37-.19-2.73-.4-4.09-.6-.68-.09-1.34-.24-2-.37l-1.98-.41c-2.66-.51-5.17-1.28-7.69-1.98-4.92-1.59-9.63-3.39-13.81-5.63-2.17-1.04-4.1-2.28-6.06-3.46-.49-.29-.95-.61-1.4-.94l-1.36-.96-1.35-.96c-.45-.32-.9-.63-1.3-.99l-2.44-2.06c-.82-.67-1.57-1.38-2.28-2.11l-2.14-2.16c-.66-.75-1.28-1.51-1.9-2.26-1.3-1.47-2.28-3.09-3.31-4.63-.52-.77-.92-1.6-1.33-2.4-.41-.81-.79-1.62-1.15-2.43.97.55,1.91,1.09,2.82,1.64.93.54,1.77,1.11,2.76,1.61,1.89,1.03,3.66,2.08,5.59,3.01.94.47,1.89.94,2.79,1.42l2.88,1.31c1.85.9,3.86,1.65,5.76,2.45.95.4,1.96.73,2.93,1.1l1.46.53c.48.18.97.36,1.48.5,2.01.61,3.93,1.29,5.95,1.78,3.94,1.14,8.01,1.9,11.98,2.57,2.03.23,3.98.59,5.99.69,1,.07,1.97.21,2.97.24.99.03,1.98.06,2.95.11.98.08,1.95,0,2.92,0,.49,0,.97-.01,1.45-.01h.72s.72-.05.72-.05c.96-.06,1.91-.13,2.86-.18.48-.01.94-.07,1.41-.13l1.4-.17c1.88-.16,3.68-.55,5.5-.83.9-.17,1.78-.41,2.67-.59l1.33-.29c.44-.11.86-.25,1.3-.38.86-.26,1.74-.47,2.59-.74l2.52-.88.64-.21.62-.25,1.23-.5,1.24-.49c.41-.18.8-.37,1.2-.55,3.24-1.42,6.33-3.12,9.28-5,2.96-1.87,5.76-3.93,8.45-6.13,1.32-1.11,2.66-2.26,4-3.49l1.83-1.7c.58-.58,1.18-1.16,1.75-1.75,2.29-2.37,4.32-4.87,6.15-7.49,3.63-5.25,6.38-10.98,8.21-17.09.8-2.68,1.74-5.6,2.15-9.4.47-4.36.43-11.23-3.01-19.65Z"/>
  <g>
    <path class="cls-1" d="m447.79,36.17c7.05-5.08,18.64-12.13,34.39-16.22,2.02-.52,10.82-2.74,22.71-3.24,0,0,19.09-.8,41.22,5.59,6.83,1.98,13.07,4.57,15.89,5.89,2.34,1.09,4.66,2.32,4.66,2.32,1.54.8,3.04,1.69,4.55,2.55,2.82,1.62,5.66,3.42,8.5,5.34,5.66,3.87,11.06,8.28,16.09,13.23,1.24,1.26,2.5,2.49,3.68,3.82l3.53,4.02c1.12,1.41,2.2,2.84,3.3,4.27,1.11,1.41,2.06,2.97,3.09,4.46,3.92,6.1,7.39,12.65,9.74,19.69.3.87.64,1.73.91,2.62l.73,2.68c.46,1.8,1.01,3.57,1.35,5.39.59,3.66,1.36,7.28,1.48,10.97.66,7.34.05,14.68-1.17,21.77-.35,1.77-.74,3.52-1.12,5.27-.17.88-.45,1.73-.7,2.58l-.77,2.55c-.96,3.43-2.39,6.66-3.71,9.9-2.97,6.34-6.34,12.4-10.53,17.8-1.95,2.79-4.26,5.29-6.48,7.8-.55.64-1.14,1.23-1.75,1.81l-1.8,1.75-1.79,1.74c-.59.58-1.18,1.16-1.84,1.67l-3.84,3.15c-1.25,1.06-2.59,2.03-3.96,2.94l-4.04,2.76c-1.4.85-2.82,1.65-4.23,2.44-2.75,1.68-5.77,2.94-8.66,4.27-1.45.67-2.98,1.18-4.49,1.71-1.51.53-3.03,1.02-4.54,1.48,1.02-1.24,2.04-2.46,3.07-3.64,1.01-1.2,2.08-2.29,3.01-3.55,1.92-2.43,3.89-4.71,5.63-7.2.89-1.22,1.76-2.43,2.66-3.6l2.45-3.71c1.69-2.39,3.1-4.97,4.58-7.42.75-1.22,1.37-2.53,2.05-3.77l1-1.88c.34-.62.66-1.24.93-1.9,1.13-2.59,2.41-5.06,3.33-7.67,2.14-5.08,3.55-10.33,4.81-15.44.43-2.61,1.1-5.13,1.3-7.72.12-1.29.39-2.54.45-3.82.06-1.28.11-2.55.2-3.8.14-1.26,0-2.52,0-3.77-.02-.63-.02-1.25-.02-1.87v-.93s-.1-.93-.1-.93c-.12-1.23-.24-2.46-.34-3.68-.02-.61-.13-1.22-.24-1.82l-.31-1.8c-.3-2.42-1.03-4.74-1.56-7.09-.31-1.16-.76-2.29-1.11-3.44l-.55-1.72c-.21-.57-.47-1.11-.7-1.67-.48-1.11-.89-2.24-1.39-3.34l-1.64-3.25-.39-.82-.47-.79-.93-1.59-.92-1.6c-.33-.52-.7-1.02-1.04-1.55-2.66-4.18-5.83-8.16-9.35-11.95-3.5-3.81-7.36-7.42-11.47-10.89-2.08-1.7-4.23-3.42-6.53-5.15l-3.19-2.36c-1.09-.74-2.17-1.52-3.28-2.25-4.42-2.95-9.11-5.57-14.01-7.93-9.81-4.68-20.54-8.22-31.96-10.58-5.02-1.04-10.48-2.24-17.59-2.77-8.16-.61-21-.55-36.75,3.88Z"/>
    <path class="cls-9" d="m252.52,473.28c-2.58,8.3-7.61,20.89-17.75,33.63-1.3,1.63-7,8.69-16.21,16.24,0,0-14.78,12.11-36.31,20.29-6.65,2.53-13.19,4.2-16.24,4.84-2.53.53-5.12.94-5.12.94-1.71.28-3.44.47-5.17.7-3.22.4-6.58.67-10.01.83-6.85.3-13.82.02-20.81-.91-1.75-.26-3.49-.49-5.24-.84l-5.23-1.09c-1.74-.46-3.47-.95-5.2-1.43-1.73-.46-3.44-1.14-5.15-1.71-6.8-2.52-13.51-5.67-19.61-9.9-.77-.52-1.55-1-2.3-1.55l-2.2-1.71c-1.44-1.16-2.95-2.24-4.32-3.5-2.67-2.57-5.47-5-7.78-7.88-4.94-5.47-8.86-11.71-12.14-18.11-.78-1.62-1.52-3.26-2.26-4.89-.4-.8-.67-1.65-.99-2.49l-.91-2.51c-1.29-3.32-2.09-6.76-2.98-10.15-1.43-6.85-2.38-13.73-2.27-20.55-.12-3.4.23-6.79.49-10.13.05-.84.18-1.67.31-2.5l.38-2.48.39-2.47c.13-.82.25-1.64.47-2.45l1.18-4.82c.36-1.6.85-3.17,1.39-4.73l1.58-4.63c.61-1.52,1.27-3.01,1.92-4.5,1.19-2.99,2.85-5.82,4.36-8.62.75-1.4,1.68-2.74,2.56-4.06.89-1.33,1.81-2.63,2.74-3.91-.07,1.61-.16,3.19-.27,4.75-.09,1.57-.29,3.08-.27,4.65-.07,3.1-.28,6.11-.18,9.13.02,1.51.05,3,.03,4.48l.27,4.44c.08,2.92.51,5.83.8,8.68.13,1.43.43,2.84.63,4.25l.33,2.1c.1.7.22,1.39.4,2.08.65,2.75,1.12,5.49,1.94,8.14,1.34,5.35,3.37,10.39,5.43,15.23,1.23,2.34,2.2,4.77,3.6,6.95.67,1.1,1.21,2.27,1.94,3.32.72,1.06,1.44,2.1,2.13,3.16.64,1.09,1.51,2.02,2.26,3.02.39.49.77.98,1.14,1.48l.56.74.63.68c.84.91,1.67,1.82,2.48,2.74.38.48.84.89,1.29,1.31l1.33,1.26c1.7,1.76,3.67,3.18,5.51,4.73.95.74,1.98,1.37,2.95,2.08l1.47,1.04c.5.33,1.05.6,1.56.91,1.05.59,2.06,1.26,3.12,1.84l3.27,1.61.81.42.85.35,1.7.71,1.69.72c.58.22,1.18.4,1.76.61,4.64,1.74,9.56,3.02,14.66,3.94,5.09.95,10.34,1.51,15.72,1.81,2.68.11,5.44.2,8.31.19l3.97-.03c1.32-.06,2.65-.09,3.97-.17,5.31-.3,10.63-1.02,15.96-2.08,10.66-2.15,21.36-5.77,31.9-10.74,4.63-2.19,9.73-4.5,15.73-8.35,6.89-4.42,17.12-12.17,27.05-25.18Z"/>
    <path class="cls-13" d="m379.47,66.19c-.22-5.45.16-13.71,3.74-21.97.46-1.06,2.49-5.64,6.63-10.48,0,0,6.65-7.77,18.44-12.82,3.64-1.56,7.4-2.56,9.19-2.93,1.48-.31,3.03-.54,3.03-.54,1.02-.16,2.07-.26,3.11-.37,1.95-.21,4.01-.33,6.14-.38,4.26-.08,8.73.22,13.36.96,1.16.2,2.32.38,3.5.65l3.55.81c1.2.33,2.4.69,3.6,1.04,1.2.34,2.43.81,3.64,1.22,4.86,1.78,9.8,3.98,14.6,6.89.6.36,1.2.69,1.8,1.07l1.77,1.17c1.17.79,2.37,1.53,3.51,2.39,2.26,1.75,4.57,3.41,6.67,5.35,4.34,3.71,8.21,7.91,11.71,12.2.85,1.09,1.69,2.18,2.52,3.27.43.54.79,1.11,1.18,1.66l1.14,1.68c1.56,2.22,2.83,4.51,4.14,6.77,2.43,4.56,4.56,9.13,6.01,13.65.83,2.25,1.36,4.49,1.94,6.7.15.55.26,1.1.36,1.65l.31,1.64.3,1.63c.1.54.21,1.08.25,1.61l.33,3.18c.13,1.05.17,2.09.17,3.11l.04,3.04c-.04.99-.13,1.97-.21,2.94-.09,1.96-.51,3.8-.84,5.63-.16.92-.45,1.78-.72,2.65-.27.86-.56,1.71-.86,2.54-.31-1.06-.61-2.11-.89-3.14-.3-1.04-.5-2.03-.86-3.07-.64-2.05-1.18-4.04-1.92-6.05-.35-1-.7-1.99-1.02-2.96l-1.16-2.94c-.7-1.94-1.62-3.87-2.44-5.76-.4-.95-.9-1.89-1.34-2.82l-.68-1.4c-.22-.46-.45-.93-.71-1.39-1.02-1.83-1.93-3.65-3.04-5.42-2.04-3.56-4.44-6.94-6.82-10.18-1.3-1.57-2.45-3.19-3.82-4.66-.67-.74-1.27-1.52-1.97-2.23-.69-.71-1.38-1.42-2.05-2.13-.65-.73-1.4-1.36-2.1-2.03-.35-.33-.7-.66-1.05-1l-.52-.5-.55-.46c-.73-.62-1.46-1.23-2.18-1.86-.35-.32-.73-.61-1.11-.89l-1.12-.85c-1.46-1.19-3.03-2.17-4.53-3.23-.77-.51-1.56-.94-2.33-1.43l-1.16-.71c-.39-.23-.8-.42-1.19-.63-.8-.41-1.58-.87-2.38-1.27l-2.43-1.12-.6-.29-.62-.25-1.23-.5-1.23-.51c-.41-.16-.83-.28-1.25-.44-3.32-1.23-6.72-2.16-10.14-2.86-3.43-.71-6.88-1.18-10.34-1.47-1.72-.12-3.48-.22-5.3-.27l-2.5-.05c-.82.02-1.65.01-2.48.04-3.29.11-6.49.5-9.63,1.11-6.26,1.24-12.22,3.46-17.78,6.57-2.44,1.37-5.15,2.82-8.08,5.26-3.37,2.81-8.12,7.77-11.49,16.22Z"/>
    <g>
      <path class="cls-4" d="m249.97,185.72l-2.34,12.02-39.94,1.94,1.89-9.7c4-20.56-1.87-30.25-18.16-30.25s-26.63,9.31-30.25,27.92l-10.94,56.24h.78c8.1-7.76,21.48-14.74,38.55-14.74,30.25,0,50.08,21.72,41.4,66.32l-7.17,36.85c-8.3,42.66-38.56,68.65-79.67,68.65s-60.49-25.99-52.2-68.65l28.21-145.05c8-41.11,37.18-65.55,77.91-65.55s59.93,22.88,51.94,63.99Zm-110.3,112.48l-6.56,33.74c-3.92,20.17,2.89,31.03,18.79,31.03s26.93-10.86,30.86-31.03l6.56-33.74c3.92-20.17-2.89-31.03-18.79-31.03s-26.93,10.86-30.86,31.03Z"/>
      <path class="cls-4" d="m396.83,190.38l-27.61,141.95c-8.3,42.66-38.56,68.65-79.67,68.65s-61.27-25.99-52.97-68.65l27.61-141.95c8.3-42.66,38.56-68.65,79.67-68.65s61.27,25.99,52.97,68.65Zm-91.61.39l-27.46,141.18c-3.92,20.17,2.89,31.03,19.18,31.03s27.32-10.86,31.24-31.03l27.46-141.18c3.92-20.17-2.89-31.03-19.18-31.03s-27.32,10.86-31.24,31.03Z"/>
      <path class="cls-4" d="m545.76,190.38l-27.61,141.95c-8.3,42.66-38.56,68.65-79.67,68.65s-61.27-25.99-52.97-68.65l27.61-141.95c8.3-42.66,38.56-68.65,79.67-68.65s61.27,25.99,52.97,68.65Zm-91.61.39l-27.46,141.18c-3.92,20.17,2.89,31.03,19.18,31.03s27.32-10.86,31.24-31.03l27.46-141.18c3.92-20.17-2.89-31.03-19.18-31.03s-27.32,10.86-31.24,31.03Z"/>
    </g>
    <g>
      <path class="cls-4" d="m183.36,466.8c-.32,0-.51-.19-.51-.5v-44.14c0-.32.19-.5.51-.5h3.09c.25,0,.51.13.63.38l11.74,20.84c1.52,2.72,3.47,6.44,4.74,8.9h.06c1.33-2.4,3.22-6.06,4.74-8.78l11.81-20.96c.13-.25.38-.38.63-.38h3.03c.32,0,.57.19.57.5v44.14c0,.32-.25.5-.57.5h-2.4c-.32,0-.57-.19-.57-.5v-25.19c0-4.48.13-9.53.19-14.08l-.06-.06c-1.77,3.41-3.73,7.01-5.81,10.73l-9.91,17.87c-.13.19-.38.32-.63.32h-2.02c-.25,0-.5-.13-.63-.32l-9.98-17.87-5.81-10.73-.06.06c.06,4.55.19,9.66.19,14.14v25.13c0,.32-.19.5-.51.5h-2.46Z"/>
      <path class="cls-4" d="m277.62,463.58h22.98c.32,0,.51.19.51.5v2.21c0,.32-.19.5-.51.5h-25.95c-.32,0-.51-.19-.51-.5v-44.14c0-.32.19-.5.51-.5h25c.38,0,.57.19.57.5v2.21c0,.32-.19.5-.57.5h-22.04v17.3h20.71c.32,0,.51.19.51.57v2.15c0,.32-.19.51-.51.51h-20.71v18.18Z"/>
      <path class="cls-4" d="m362.11,467.43c-9.72,0-16.23-5.81-16.23-15.28v-15.91c0-9.53,6.38-15.28,15.91-15.28,5.18,0,10.54,1.64,14.71,4.8.32.19.32.51.13.76l-1.33,1.77c-.19.25-.44.32-.69.13-3.6-2.65-8.21-4.17-12.82-4.17-7.96,0-12.44,4.67-12.44,12.06v15.85c0,7.32,4.74,12,12.75,12,4.67,0,9.03-1.58,12.25-4.42v-13.58h-12c-.38,0-.57-.19-.57-.5v-2.21c0-.32.19-.5.57-.5h14.9c.32,0,.57.19.57.5v17.17c0,.25-.06.5-.25.63-3.98,3.98-9.41,6.19-15.47,6.19Z"/>
      <path class="cls-4" d="m420.83,466.8c-.32,0-.5-.25-.38-.63l16.16-44.07c.13-.25.32-.44.57-.44h3.16c.25,0,.44.19.57.44l16.23,44.07c.06.38-.06.63-.44.63h-2.59c-.32,0-.5-.19-.63-.44l-4.61-12.75h-20.21l-4.61,12.75c-.13.25-.32.44-.57.44h-2.65Zm8.9-16.42h18.06l-8.9-24.69h-.19l-8.97,24.69Z"/>
    </g>
  </g>
</svg>